<svg width="96" height="96" viewBox="0 0 96 96" fill="none" xmlns="http://www.w3.org/2000/svg">
<path d="M50.3401 69.1013H22.1538C20.113 69.1013 18.4615 70.7527 18.4615 72.7936C18.4615 74.8345 20.113 76.4859 22.1538 76.4859H50.3401C52.381 76.4859 54.0324 74.8345 54.0324 72.7936C54.0324 70.7527 52.381 69.1013 50.3401 69.1013ZM50.3437 54.159C43.6129 54.154 49.4355 54.1489 22.1538 54.1914C20.113 54.1914 18.4615 55.8429 18.4615 57.8837C18.4615 59.9246 20.113 61.576 22.1538 61.576C22.5243 61.5756 52.3666 61.5453 50.3401 61.5436C52.3774 61.5436 54.0324 59.8922 54.0324 57.8549C54.0324 55.814 52.381 54.159 50.3437 54.159ZM47.5349 19.4751L24.9411 19.5003C21.3678 19.5075 18.4615 22.421 18.4615 25.9907V39.1914C18.4615 42.772 21.3714 45.6818 24.9519 45.6818H47.5421C51.1226 45.6818 54.0324 42.772 54.0324 39.1914V25.9655C54.0324 22.385 51.119 19.4751 47.5349 19.4751ZM46.6478 38.2972H25.8462V26.885L46.6478 26.8597V38.2972Z" fill="#FAFAFA"/>
<path d="M92.3077 20.8326C92.3077 12.3446 85.9399 5.30976 77.8125 4.82299C75.5407 4.67472 23.3786 4.79316 19.1394 4.79414C10.6226 4.79414 3.69231 11.7244 3.69231 20.2413V84.186C3.69231 88.0838 6.86178 91.2533 10.7596 91.2533H61.7344C65.6322 91.2533 68.8017 88.0838 68.8017 84.186V51.1499H85.2404C89.1382 51.1499 92.3077 47.9804 92.3077 44.0826V20.8326ZM61.4171 83.8687H11.0769V20.2413C11.0769 15.7953 14.6935 12.1788 19.1394 12.1788C24.462 12.174 10.6843 12.1863 63.7031 12.1391C62.2206 14.5227 61.4171 17.6725 61.4171 20.2413V47.4576V83.8687ZM84.9231 43.7653H68.8017V20.2413C68.8017 15.302 73.0739 11.9251 77.3726 12.1932C81.5337 12.4456 84.9231 16.3182 84.9231 20.8326V43.7653Z" fill="#FAFAFA"/>
</svg>
